<svg xmlns="http://www.w3.org/2000/svg" height="595pt" version="1.1" viewBox="0 -24 595.27055 595" width="595pt">
<g id="surface1">
<path d="M 591.351562 250.550781 L 305.039062 2.890625 C 300.78125 -0.796875 294.464844 -0.796875 290.210938 2.890625 L 3.898438 250.550781 C -0.820312 254.648438 -1.324219 261.796875 2.769531 266.515625 C 4.921875 268.988281 8.035156 270.410156 11.3125 270.414062 L 75.941406 270.414062 L 75.941406 509.925781 C 75.976562 530.070312 92.296875 546.394531 112.445312 546.425781 L 482.800781 546.425781 C 502.949219 546.394531 519.273438 530.070312 519.304688 509.925781 L 519.304688 270.1875 L 583.9375 270.1875 C 590.1875 270.046875 595.136719 264.863281 594.996094 258.617188 C 594.921875 255.542969 593.609375 252.632812 591.351562 250.550781 Z M 372.160156 523.621094 L 223.089844 523.621094 L 223.089844 375.058594 C 223.117188 372.664062 225.054688 370.730469 227.445312 370.703125 L 367.800781 370.703125 C 370.195312 370.730469 372.132812 372.664062 372.160156 375.058594 C 372.160156 375.058594 372.160156 523.621094 372.160156 523.621094 Z M 372.160156 523.621094 " style=" stroke:none;fill-rule:nonzero;fill:rgb(0%,0%,0%);fill-opacity:1;" />
</g>
</svg>