<svg id="Capa_1" enable-background="new 0 0 512.012 512.012" height="512" viewBox="0 0 512.012 512.012" width="512" xmlns="http://www.w3.org/2000/svg"><g><g><path d="m511.934 318.702c-.657-6.021-5.322-10.678-11.345-11.322l-47.194-5.056 6.797-77.224c.431-4.885-1.906-9.501-6.099-12.047-4.189-2.545-9.366-2.489-13.505.147l-33.612 21.43c-3.492 2.227-4.519 6.863-2.292 10.356 2.229 3.492 6.863 4.519 10.356 2.292l29.814-19.009-6.376 72.456-68.702-7.361-7.313-12.565 22.238-14.177c3.492-2.227 4.519-6.863 2.292-10.356-2.228-3.493-6.863-4.517-10.356-2.292l-17.219 10.977-4.247-128.112c-.146-4.416-2.512-8.383-6.327-10.611-3.815-2.229-8.432-2.342-12.354-.3l-212.691 110.822 10.053-48.623c.839-4.057-1.77-8.024-5.826-8.863-4.063-.837-8.025 1.771-8.863 5.826l-53.58 259.139-43.106-110.961 65.671-220.16 47.628-8.368-9.328 45.113c-.839 4.057 1.77 8.024 5.826 8.863.512.105 1.023.157 1.526.157 3.482 0 6.604-2.439 7.337-5.983 0 0 11.421-55.317 11.511-55.69.699-2.901-.388-5.942-2.77-7.741l-70.142-53.002c-5.285-3.991-12.867-3.238-17.263 1.712-.001.001-.001.001-.002.002l-59.216 66.71c-3.662 4.125-4.291 9.902-1.602 14.718 2.31 4.134 6.503 6.558 11.081 6.558.755 0 58.893-10.146 58.893-10.146l-63.74 213.695c-.81 2.707-.691 5.649.332 8.285l52.576 135.34c1.132 2.913 3.93 4.785 6.987 4.784.333 0 368.637-49.627 368.637-49.627 2.483-.335 4.635-1.887 5.735-4.138.808-1.652.965-3.519.496-5.252l6.494-68.699 54.154-18.195c5.742-1.929 9.293-7.481 8.636-13.502zm-439.604-269.041 54.757 41.376-108.39 19.043zm267.965 91.198 3.58 108.004-29.153-50.088c-2.879-4.946-8.759-7.386-14.289-5.934l-120.572 31.611zm-221.414 119.674 79.719 27.09-116.836 152.428zm25.852 192.141 251.273-84.422 27.28 46.871zm285.284-55.806-19.494-33.493 23.125-7.769zm-341.337 58.815 125.622-163.891 65.945 7.066c.271.029.541.044.808.044 3.783 0 7.036-2.855 7.448-6.702.441-4.118-2.539-7.814-6.658-8.256l-69.052-7.34-75.212-25.559 165.027-43.266 48.658 83.602-33.774-3.619c-4.12-.444-7.814 2.541-8.256 6.658-.441 4.118 2.539 7.814 6.658 8.256l173.018 18.537z"/></g></g></svg>