<svg height="512" viewBox="0 0 64 64" width="512" xmlns="http://www.w3.org/2000/svg" xmlns:xlink="http://www.w3.org/1999/xlink"><linearGradient id="gradient_ice" gradientUnits="userSpaceOnUse" x1="-4.633" x2="59.617" y1="64.314" y2="1.375"><stop offset="0" stop-color="#fff200"/><stop offset="1" stop-color="#cd118c"/></linearGradient><linearGradient id="gradient_ice-2" x1="-3.097" x2="61.152" xlink:href="#gradient_ice" y1="65.881" y2="2.943"/><linearGradient id="gradient_ice-3" x1="1.495" x2="65.745" xlink:href="#gradient_ice" y1="70.569" y2="7.631"/><linearGradient id="gradient_ice-4" x1="-26.608" x2="37.642" xlink:href="#gradient_ice" y1="41.881" y2="-21.057"/><linearGradient id="gradient_ice-5" x1="-23.669" x2="40.58" xlink:href="#gradient_ice" y1="44.88" y2="-18.058"/><linearGradient id="gradient_ice-6" x1="-20.731" x2="43.518" xlink:href="#gradient_ice" y1="47.88" y2="-15.059"/><g id="graduate-website-online-education"><path d="m11 45c-1.683 0-3 1.757-3 4s1.317 4 3 4 3-1.757 3-4-1.317-4-3-4zm0 6c-.408 0-1-.779-1-2s.592-2 1-2 1 .779 1 2-.592 2-1 2z" fill="url(#gradient_ice)"/><path d="m61 2h-58a1 1 0 0 0 -1 1v57a1 1 0 0 0 1 1h58a1 1 0 0 0 1-1v-57a1 1 0 0 0 -1-1zm-1 57h-56v-47h56zm0-49h-56v-6h56z" fill="url(#gradient_ice-2)"/><path d="m52 42h-6.1l-1.53-14.75 3.63-1.72v2.65a3.01 3.01 0 0 0 -2 2.82v3a1 1 0 0 0 1 1h4a1 1 0 0 0 1-1v-3a3.01 3.01 0 0 0 -2-2.82v-3.6l1.43-.68a1 1 0 0 0 -.04-1.82l-19-8a.963.963 0 0 0 -.78 0l-19 8a1 1 0 0 0 -.04 1.82l7.06 3.35-1.53 14.75h-7.1c-3.31 0-6 3.14-6 7s2.69 7 6 7h41a7 7 0 0 0 0-14zm-3-12a1 1 0 0 1 1 1v2h-2v-2a1 1 0 0 1 1-1zm-33.55-6.95 16.55-6.97 14.05 5.92h-11.23a3 3 0 1 0 0 2h11.73l-14.55 6.89zm17.55-.05a1 1 0 1 1 -1-1 1 1 0 0 1 1 1zm10.89 19h-23.78l1.44-13.85 10.02 4.75a.974.974 0 0 0 .86 0l10.02-4.75zm-32.89 12c-2.21 0-4-2.24-4-5s1.79-5 4-5 4 2.24 4 5-1.79 5-4 5zm34 0h-29.81a7.811 7.811 0 0 0 0-10h29.81a5 5 0 0 1 0 10zm7 0h-2.11a6.979 6.979 0 0 0 0-10h2.11a5 5 0 0 1 0 10z" fill="url(#gradient_ice-3)"/><circle cx="9" cy="7" fill="url(#gradient_ice-4)" r="2"/><circle cx="15" cy="7" fill="url(#gradient_ice-5)" r="2"/><circle cx="21" cy="7" fill="url(#gradient_ice-6)" r="2"/></g></svg>